<svg xmlns="http://www.w3.org/2000/svg" viewBox="0 0 300 300" xml:space="preserve"><path d="M247.481 77.397c.093-5.528-1.909-10.625-5.637-14.352a5.177 5.177 0 1 0-7.322 7.322c1.726 1.725 2.65 4.159 2.605 6.856-.044 2.572-1.018 5.057-2.605 6.645-3.294 3.295-36.132 32.123-61.776 54.554l-6.286-6.285c18.723-21.421 41.957-47.909 51.043-57.966l2.068 2.068a5.178 5.178 0 0 0 7.322-7.322l-5.872-5.872a5.179 5.179 0 0 0-7.322 0c-3.15 3.15-22.424 25.04-39.812 44.884-4.678-7.078-10.923-13.168-18.353-17.842-10.86-6.831-23.521-10.296-37.632-10.296-3.104 0-6.174.196-9.127.583a5.177 5.177 0 0 0 1.344 10.267 60.272 60.272 0 0 1 7.783-.495c21.487 0 39.509 9.632 48.853 25.926a22598.641 22598.641 0 0 0-19.826 22.69c-6.45.879-11.265 3.52-14.658 8.046-3.156 4.209-4.539 9.234-6.003 14.557-1.766 6.416-3.59 13.051-8.798 18.257a5.182 5.182 0 0 0-1.123 5.643 5.182 5.182 0 0 0 4.785 3.196c13.933 0 24.976-2.969 32.824-8.828 7.073-5.279 11.286-12.773 12.284-21.773 13.34-11.651 70.82-61.884 75.604-66.67 3.495-3.492 5.549-8.52 5.637-13.793zm-82.549 67.857-4.513 3.943-4.727-4.727 3.94-4.517 5.3 5.301zm-17.168 26.08c-4.074 3.041-9.492 5.067-16.183 6.059 2.276-4.577 3.554-9.218 4.673-13.282 2.398-8.721 3.86-13.098 9.774-14.66l9.56 9.561c-1.054 5.088-3.673 9.224-7.824 12.322zM92.609 95.625a5.16 5.16 0 0 0 2.245-.514c.465-.225.942-.444 1.417-.655a5.177 5.177 0 0 0-4.18-9.473c-.583.257-1.165.526-1.735.8a5.176 5.176 0 0 0-2.413 6.912 5.173 5.173 0 0 0 4.666 2.93z"/><path d="M130.025 194.214a5.182 5.182 0 0 0-5.236 5.119c-.224 19.905-3.229 28.784-20.441 28.784-9.65 0-19.777-7.059-27.785-19.367-8.83-13.572-13.692-31.192-13.692-49.617 0-23.918 7.222-43.819 20.337-56.038a5.177 5.177 0 0 0-7.056-7.576c-7.728 7.198-13.704 16.548-17.768 27.794-3.893 10.775-5.867 22.828-5.867 35.82 0 20.405 5.457 40.031 15.367 55.264 9.954 15.3 23.244 24.075 36.465 24.075 12.643 0 21.455-4.448 26.191-13.224 4.066-7.534 4.509-17.267 4.604-25.798a5.177 5.177 0 0 0-5.119-5.236zM155.501 117.536c0-9.51-7.737-17.248-17.248-17.248s-17.249 7.738-17.249 17.248c0 9.511 7.738 17.25 17.249 17.25s17.248-7.739 17.248-17.25zm-24.143 0c0-3.801 3.093-6.894 6.895-6.894s6.894 3.092 6.894 6.894c0 3.803-3.092 6.896-6.894 6.896s-6.895-3.093-6.895-6.896z"/><path d="M97.143 140.985c9.511 0 17.249-7.738 17.249-17.249 0-9.512-7.738-17.249-17.249-17.249s-17.249 7.738-17.249 17.249 7.739 17.249 17.249 17.249zm0-24.143a6.903 6.903 0 0 1 6.896 6.895c0 3.801-3.093 6.894-6.896 6.894-3.801 0-6.895-3.092-6.895-6.894.001-3.802 3.095-6.895 6.895-6.895zM101.181 163.368c0-9.512-7.739-17.25-17.25-17.25-9.512 0-17.249 7.738-17.249 17.25 0 9.511 7.737 17.248 17.249 17.248 9.51.001 17.25-7.737 17.25-17.248zm-17.25 6.894a6.9 6.9 0 0 1-6.894-6.893 6.902 6.902 0 0 1 6.894-6.895 6.902 6.902 0 0 1 6.894 6.895c-.001 3.801-3.094 6.893-6.894 6.893zM102.054 220.977c9.512 0 17.25-7.737 17.25-17.249 0-9.511-7.738-17.249-17.25-17.249s-17.249 7.738-17.249 17.249c0 9.512 7.737 17.249 17.249 17.249zm0-24.142c3.801 0 6.895 3.092 6.895 6.894 0 3.801-3.094 6.894-6.895 6.894a6.902 6.902 0 0 1-6.895-6.894 6.901 6.901 0 0 1 6.895-6.894z"/></svg>