<svg xmlns="http://www.w3.org/2000/svg" viewBox="0 0 512 512" style="enable-background:new 0 0 512 512" xml:space="preserve"><path style="fill:#afb9d2" d="M255.999 256c-38.941-38.941-38.941-102.303 0-141.244l77.042-77.042c38.941-38.941 102.303-38.941 141.244 0s38.941 102.303 0 141.244L397.243 256c-38.942 38.94-102.303 38.94-141.244 0zM448.604 63.394c-24.778-24.778-65.101-24.781-89.883 0l-77.042 77.042c-24.781 24.781-24.778 65.105 0 89.883s65.101 24.781 89.883 0l77.042-77.042c24.781-24.782 24.778-65.105 0-89.883z"/><path style="fill:#afb9d2" d="M37.713 474.286c-38.941-38.941-38.941-102.303 0-141.244L114.755 256c38.941-38.941 102.303-38.941 141.244 0s38.941 102.303 0 141.244l-77.042 77.042c-38.942 38.94-102.303 38.94-141.244 0zM230.318 281.68c-24.778-24.778-65.101-24.781-89.883 0l-77.042 77.042c-24.781 24.781-24.778 65.105 0 89.883 24.778 24.778 65.101 24.781 89.883 0l77.042-77.042c24.781-24.782 24.778-65.105 0-89.883z"/><path style="fill:#959cb5" d="m286.585 276.775 28.89-28.89c-12.386-2.19-24.247-8.019-33.795-17.567-9.548-9.548-15.377-21.408-17.567-33.795l-28.89 28.89c4.845 11.097 11.709 21.52 20.776 30.585 9.067 9.066 19.488 15.933 30.586 20.777zM225.415 235.225l-28.889 28.889c12.386 2.19 24.246 8.019 33.793 17.567 9.548 9.548 15.377 21.409 17.568 33.796l28.89-28.89c-4.845-11.099-11.71-21.521-20.776-30.588-9.068-9.065-19.489-15.931-30.586-20.774z"/><path style="fill:#959cb5" d="M281.68 230.318c-12.568-12.569-18.733-29.14-18.551-45.652l-31.434 31.436C236.391 230.694 244.436 244.435 256 256c11.564 11.565 25.306 19.609 39.898 24.305l31.434-31.434c-16.513.182-33.082-5.983-45.652-18.553zM280.304 295.897c-4.696-14.592-12.741-28.333-24.305-39.898-11.564-11.565-25.306-19.609-39.898-24.306l-31.434 31.436c16.513-.183 33.081 5.981 45.653 18.551 12.568 12.569 18.733 29.14 18.551 45.652l31.433-31.435z"/><path style="fill:#afb9d2" d="M153.276 358.722c-7.091-7.091-7.091-18.589 0-25.68l179.765-179.765c7.091-7.091 18.589-7.091 25.68 0 7.091 7.091 7.091 18.589 0 25.68L178.957 358.722c-7.092 7.092-18.589 7.092-25.681 0z"/><path style="fill:#959cb5" d="M202.073 309.925c-7.092-7.092-7.092-18.589 0-25.68l-48.797 48.797c-7.092 7.091-7.092 18.589 0 25.68 7.092 7.091 18.589 7.091 25.68 0l48.797-48.797c-7.091 7.091-18.589 7.091-25.68 0z"/><path d="M281.34 297.596a8.513 8.513 0 0 0-6.574 10.085c6.406 30.386-2.86 61.618-24.786 83.544l-77.042 77.042c-35.622 35.622-93.585 35.622-129.206 0-35.622-35.622-35.622-93.584 0-129.206l77.042-77.042c21.921-21.92 53.148-31.188 83.527-24.79a8.51 8.51 0 0 0 10.084-6.575 8.513 8.513 0 0 0-6.575-10.084c-36.034-7.59-73.068 3.406-99.073 29.411l-77.042 77.042c-42.259 42.259-42.259 111.022 0 153.281C52.824 501.434 80.58 512 108.335 512s55.511-10.565 76.64-31.695l77.042-77.042c26.01-26.011 37.004-63.055 29.407-99.093a8.51 8.51 0 0 0-10.084-6.574z"/><path d="M146.455 287.698a54.927 54.927 0 0 1 25.608-14.498 8.513 8.513 0 0 0-4.099-16.523 71.966 71.966 0 0 0-33.546 18.983l-77.042 77.042c-13.612 13.611-21.109 31.709-21.109 50.96s7.496 37.349 21.109 50.96c13.611 13.612 31.709 21.109 50.96 21.109 19.25 0 37.349-7.496 50.96-21.109l77.042-77.042a71.983 71.983 0 0 0 18.997-33.6 8.512 8.512 0 0 0-16.525-4.087 54.941 54.941 0 0 1-14.508 25.648l-77.042 77.042c-10.397 10.397-24.22 16.123-38.922 16.123-14.703 0-28.526-5.726-38.923-16.123-10.397-10.397-16.123-24.22-16.123-38.923s5.726-28.526 16.123-38.922l77.04-77.04zM480.304 31.695c-42.259-42.259-111.021-42.261-153.281 0l-77.042 77.042c-26.01 26.011-37.004 63.055-29.407 99.093a8.513 8.513 0 0 0 16.659-3.511c-6.406-30.386 2.86-61.618 24.786-83.544l77.042-77.042c35.622-35.622 93.585-35.621 129.206 0 35.622 35.622 35.622 93.584 0 129.206l-77.042 77.043c-21.921 21.921-53.147 31.188-83.527 24.79a8.512 8.512 0 0 0-3.509 16.659 109.302 109.302 0 0 0 22.544 2.356c28.442 0 55.943-11.18 76.529-31.767l77.042-77.042c42.259-42.262 42.259-111.024 0-153.283z"/><path d="M365.542 224.3a54.927 54.927 0 0 1-25.608 14.498 8.513 8.513 0 0 0 4.099 16.523 71.974 71.974 0 0 0 33.547-18.983l77.042-77.042c13.612-13.611 21.109-31.709 21.109-50.96s-7.496-37.349-21.109-50.96c-13.611-13.612-31.709-21.109-50.96-21.109-19.25 0-37.349 7.496-50.96 21.109l-77.042 77.042a71.976 71.976 0 0 0-18.983 33.546 8.513 8.513 0 0 0 16.523 4.099 54.937 54.937 0 0 1 14.498-25.608l77.042-77.042c10.397-10.397 24.22-16.123 38.922-16.123 14.703 0 28.526 5.726 38.923 16.123 10.397 10.397 16.123 24.22 16.123 38.923s-5.726 28.526-16.123 38.922L365.542 224.3z"/><path d="M147.257 364.741c5.199 5.2 12.029 7.799 18.859 7.799s13.66-2.6 18.859-7.799L364.74 184.976c10.399-10.399 10.399-27.319 0-37.719-10.398-10.399-27.32-10.399-37.719 0L147.257 327.023c-10.399 10.398-10.399 27.319 0 37.718zm12.038-25.681L339.06 159.295a9.585 9.585 0 0 1 6.821-2.826 9.583 9.583 0 0 1 6.822 2.826 9.583 9.583 0 0 1 2.826 6.822 9.58 9.58 0 0 1-2.826 6.821L172.938 352.703a9.585 9.585 0 0 1-6.821 2.826 9.583 9.583 0 0 1-6.822-2.826 9.583 9.583 0 0 1-2.826-6.822 9.592 9.592 0 0 1 2.826-6.821z"/></svg>